{"asset":{"version":"2.0","generator":"THREE.GLTFExporter r175"},"scenes":[{"name":"AuxScene","nodes":[21]}],"scene":0,"nodes":[{"mesh":0},{"mesh":1},{"mesh":2},{"mesh":3},{"mesh":4},{"mesh":5},{"mesh":6},{"mesh":7},{"mesh":8},{"mesh":9},{"mesh":10},{"mesh":11},{"mesh":12},{"mesh":13},{"mesh":14},{"mesh":15},{"mesh":16},{"matrix":[1.065895488845174,0,-1.065895488845174,0,0,-1.507403856397145,0,0,1.065895488845174,0,1.065895488845174,0,0,0,0,1],"children":[0,1,2,3,4,5,6,7,8,9,10,11,12,13,14,15,16]},{"children":[17]},{"matrix":[1,0,0,0,0,1,0,0,0,0,1,0,-120.9793422800501,47.48338632562601,116.71576057879871,1],"children":[18]},{"children":[19]},{"children":[20]}],"bufferViews":[{"buffer":0,"byteOffset":0,"byteLength":87696,"target":34962,"byteStride":12},{"buffer":0,"byteOffset":87696,"byteLength":58464,"target":34962,"byteStride":8},{"buffer":0,"byteOffset":146160,"byteLength":87696,"target":34962,"byteStride":12},{"buffer":0,"byteOffset":233856,"byteLength":47376,"target":34962,"byteStride":12},{"buffer":0,"byteOffset":281232,"byteLength":31584,"target":34962,"byteStride":8},{"buffer":0,"byteOffset":312816,"byteLength":47376,"target":34962,"byteStride":12},{"buffer":0,"byteOffset":360192,"byteLength":102096,"target":34962,"byteStride":12},{"buffer":0,"byteOffset":462288,"byteLength":68064,"target":34962,"byteStride":8},{"buffer":0,"byteOffset":530352,"byteLength":102096,"target":34962,"byteStride":12},{"buffer":0,"byteOffset":632448,"byteLength":35856,"target":34962,"byteStride":12},{"buffer":0,"byteOffset":668304,"byteLength":23904,"target":34962,"byteStride":8},{"buffer":0,"byteOffset":692208,"byteLength":35856,"target":34962,"byteStride":12},{"buffer":0,"byteOffset":728064,"byteLength":35856,"target":34962,"byteStride":12},{"buffer":0,"byteOffset":763920,"byteLength":23904,"target":34962,"byteStride":8},{"buffer":0,"byteOffset":787824,"byteLength":35856,"target":34962,"byteStride":12},{"buffer":0,"byteOffset":823680,"byteLength":130896,"target":34962,"byteStride":12},{"buffer":0,"byteOffset":954576,"byteLength":87264,"target":34962,"byteStride":8},{"buffer":0,"byteOffset":1041840,"byteLength":130896,"target":34962,"byteStride":12},{"buffer":0,"byteOffset":1172736,"byteLength":50256,"target":34962,"byteStride":12},{"buffer":0,"byteOffset":1222992,"byteLength":33504,"target":34962,"byteStride":8},{"buffer":0,"byteOffset":1256496,"byteLength":50256,"target":34962,"byteStride":12},{"buffer":0,"byteOffset":1306752,"byteLength":8496,"target":34962,"byteStride":12},{"buffer":0,"byteOffset":1315248,"byteLength":5664,"target":34962,"byteStride":8},{"buffer":0,"byteOffset":1320912,"byteLength":8496,"target":34962,"byteStride":12},{"buffer":0,"byteOffset":1329408,"byteLength":96624,"target":34962,"byteStride":12},{"buffer":0,"byteOffset":1426032,"byteLength":64416,"target":34962,"byteStride":8},{"buffer":0,"byteOffset":1490448,"byteLength":96624,"target":34962,"byteStride":12},{"buffer":0,"byteOffset":1587072,"byteLength":50256,"target":34962,"byteStride":12},{"buffer":0,"byteOffset":1637328,"byteLength":33504,"target":34962,"byteStride":8},{"buffer":0,"byteOffset":1670832,"byteLength":50256,"target":34962,"byteStride":12},{"buffer":0,"byteOffset":1721088,"byteLength":4176,"target":34962,"byteStride":12},{"buffer":0,"byteOffset":1725264,"byteLength":2784,"target":34962,"byteStride":8},{"buffer":0,"byteOffset":1728048,"byteLength":4176,"target":34962,"byteStride":12},{"buffer":0,"byteOffset":1732224,"byteLength":4176,"target":34962,"byteStride":12},{"buffer":0,"byteOffset":1736400,"byteLength":2784,"target":34962,"byteStride":8},{"buffer":0,"byteOffset":1739184,"byteLength":4176,"target":34962,"byteStride":12},{"buffer":0,"byteOffset":1743360,"byteLength":130896,"target":34962,"byteStride":12},{"buffer":0,"byteOffset":1874256,"byteLength":87264,"target":34962,"byteStride":8},{"buffer":0,"byteOffset":1961520,"byteLength":130896,"target":34962,"byteStride":12},{"buffer":0,"byteOffset":2092416,"byteLength":72000,"target":34962,"byteStride":12},{"buffer":0,"byteOffset":2164416,"byteLength":48000,"target":34962,"byteStride":8},{"buffer":0,"byteOffset":2212416,"byteLength":72000,"target":34962,"byteStride":12},{"buffer":0,"byteOffset":2284416,"byteLength":4176,"target":34962,"byteStride":12},{"buffer":0,"byteOffset":2288592,"byteLength":2784,"target":34962,"byteStride":8},{"buffer":0,"byteOffset":2291376,"byteLength":4176,"target":34962,"byteStride":12},{"buffer":0,"byteOffset":2295552,"byteLength":9360,"target":34962,"byteStride":12},{"buffer":0,"byteOffset":2304912,"byteLength":6240,"target":34962,"byteStride":8},{"buffer":0,"byteOffset":2311152,"byteLength":9360,"target":34962,"byteStride":12},{"buffer":0,"byteOffset":2320512,"byteLength":96480,"target":34962,"byteStride":12},{"buffer":0,"byteOffset":2416992,"byteLength":64320,"target":34962,"byteStride":8},{"buffer":0,"byteOffset":2481312,"byteLength":96480,"target":34962,"byteStride":12}],"buffers":[{"byteLength":2577792,"uri":"data:application/octet-stream;base64,"}],"accessors":[{"bufferView":0,"componentType":5126,"count":7308,"max":[198.4794921875,27.19890022277832,4.599999904632568],"min":[165.71180725097656,-0.29994338750839233,-0.6000000238418579],"type":"VEC3"},{"bufferView":1,"componentType":5126,"count":7308,"max":[198.17909240722656,26.89889907836914],"min":[0.2621166706085205,-3.5999999046325684],"type":"VEC2"},{"bufferView":2,"componentType":5126,"count":7308,"max":[0.9993090033531189,1,1],"min":[-0.9996951818466187,-0.999974250793457,-1],"type":"VEC3"},{"bufferView":3,"componentType":5126,"count":3948,"max":[223.30116271972656,26.08317756652832,4.599999904632568],"min":[199.1837615966797,14.096502304077148,-0.6000000238418579],"type":"VEC3"},{"bufferView":4,"componentType":5126,"count":3948,"max":[222.99990844726562,25.782899856567383],"min":[14.60509204864502,-3.5999999046325684],"type":"VEC2"},{"bufferView":5,"componentType":5126,"count":3948,"max":[0.997175931930542,0.9996477961540222,1],"min":[-0.9998199939727783,-0.9999878406524658,-1],"type":"VEC3"},{"bufferView":6,"componentType":5126,"count":8508,"max":[205.39012145996094,60.20389938354492,4.599999904632568],"min":[159.69967651367188,22.936002731323242,-0.6000000238418579],"type":"VEC3"},{"bufferView":7,"componentType":5126,"count":8508,"max":[205.08900451660156,59.903900146484375],"min":[23.50307846069336,-3.5999999046325684],"type":"VEC2"},{"bufferView":8,"componentType":5126,"count":8508,"max":[1,1,1],"min":[-1,-0.9999969005584717,-1],"type":"VEC3"},{"bufferView":9,"componentType":5126,"count":2988,"max":[184.82244873046875,38.87860870361328,4.599999904632568],"min":[178.1665496826172,33.206321716308594,-0.6000000238418579],"type":"VEC3"},{"bufferView":10,"componentType":5126,"count":2988,"max":[184.52099609375,38.57820129394531],"min":[33.813880920410156,-3.5999999046325684],"type":"VEC2"},{"bufferView":11,"componentType":5126,"count":2988,"max":[0.9956449866294861,0.9990719556808472,1],"min":[-0.9956376552581787,-0.9996674656867981,-1],"type":"VEC3"},{"bufferView":12,"componentType":5126,"count":2988,"max":[208.33892822265625,63.30042266845703,4.599999904632568],"min":[201.73834228515625,56.60572052001953,-0.6000000238418579],"type":"VEC3"},{"bufferView":13,"componentType":5126,"count":2988,"max":[208.03750610351562,63],"min":[57.148372650146484,-3.5999999046325684],"type":"VEC2"},{"bufferView":14,"componentType":5126,"count":2988,"max":[0.9953028559684753,0.9985911250114441,1],"min":[-0.9953457713127136,-0.9987424612045288,-1],"type":"VEC3"},{"bufferView":15,"componentType":5126,"count":10908,"max":[19.648122787475586,42.300193786621094,4.599999904632568],"min":[-0.30000001192092896,-0.30020394921302795,-0.6000000238418579],"type":"VEC3"},{"bufferView":16,"componentType":5126,"count":10908,"max":[39.577911376953125,42],"min":[-0.30000001192092896,-3.5999999046325684],"type":"VEC2"},{"bufferView":17,"componentType":5126,"count":10908,"max":[1,1,1],"min":[-1,-1,-1],"type":"VEC3"},{"bufferView":18,"componentType":5126,"count":4188,"max":[42.480499267578125,42.300193786621094,4.599999904632568],"min":[22.532400131225586,0.28333398699760437,-0.6000000238418579],"type":"VEC3"},{"bufferView":19,"componentType":5126,"count":4188,"max":[42.480499267578125,42],"min":[0.28333398699760437,-3.5999999046325684],"type":"VEC2"},{"bufferView":20,"componentType":5126,"count":4188,"max":[1,0.9993587136268616,1],"min":[-1,-1,-1],"type":"VEC3"},{"bufferView":21,"componentType":5126,"count":708,"max":[67.4529037475586,41.71670150756836,4.599999904632568],"min":[46.501800537109375,0.28333398699760437,-0.6000000238418579],"type":"VEC3"},{"bufferView":22,"componentType":5126,"count":708,"max":[67.4529037475586,41.41669845581055],"min":[0.28333398699760437,-3.5999999046325684],"type":"VEC2"},{"bufferView":23,"componentType":5126,"count":708,"max":[1,1,1],"min":[-1,-1,-1],"type":"VEC3"},{"bufferView":24,"componentType":5126,"count":8052,"max":[92.331298828125,41.71670150756836,4.599999904632568],"min":[71.67539978027344,0.28333398699760437,-0.6000000238418579],"type":"VEC3"},{"bufferView":25,"componentType":5126,"count":8052,"max":[92.03130340576172,41.41669845581055],"min":[0.28333398699760437,-3.5999999046325684],"type":"VEC2"},{"bufferView":26,"componentType":5126,"count":8052,"max":[1,1,1],"min":[-1,-1,-1],"type":"VEC3"},{"bufferView":27,"componentType":5126,"count":4188,"max":[115.23600006103516,42.300193786621094,4.599999904632568],"min":[95.28829956054688,0.28333398699760437,-0.6000000238418579],"type":"VEC3"},{"bufferView":28,"componentType":5126,"count":4188,"max":[115.23600006103516,42],"min":[0.28333398699760437,-3.5999999046325684],"type":"VEC2"},{"bufferView":29,"componentType":5126,"count":4188,"max":[1,0.9993587136268616,1],"min":[-1,-1,-1],"type":"VEC3"},{"bufferView":30,"componentType":5126,"count":348,"max":[137.0229949951172,41.71670150756836,4.599999904632568],"min":[119.25700378417969,0.28333398699760437,-0.6000000238418579],"type":"VEC3"},{"bufferView":31,"componentType":5126,"count":348,"max":[137.0229949951172,41.41669845581055],"min":[0.28333398699760437,-3.5999999046325684],"type":"VEC2"},{"bufferView":32,"componentType":5126,"count":348,"max":[1,1,1],"min":[-1,-1,-1],"type":"VEC3"},{"bufferView":33,"componentType":5126,"count":348,"max":[157.3000030517578,41.71670150756836,4.599999904632568],"min":[139.53500366210938,0.28333398699760437,-0.6000000238418579],"type":"VEC3"},{"bufferView":34,"componentType":5126,"count":348,"max":[157.3000030517578,41.41669845581055],"min":[0.28333398699760437,-3.5999999046325684],"type":"VEC2"},{"bufferView":35,"componentType":5126,"count":348,"max":[1,1,1],"min":[-1,-1,-1],"type":"VEC3"},{"bufferView":36,"componentType":5126,"count":10908,"max":[125.93212890625,59.3001823425293,4.599999904632568],"min":[118.69999694824219,44.699806213378906,-0.6000000238418579],"type":"VEC3"},{"bufferView":37,"componentType":5126,"count":10908,"max":[125.89099884033203,59],"min":[45.686092376708984,-3.5999999046325684],"type":"VEC2"},{"bufferView":38,"componentType":5126,"count":10908,"max":[1,1,1],"min":[-1,-1,-1],"type":"VEC3"},{"bufferView":39,"componentType":5126,"count":6000,"max":[133.79800415039062,59.30018615722656,4.599999904632568],"min":[126.44499969482422,44.69981384277344,-0.6000000238418579],"type":"VEC3"},{"bufferView":40,"componentType":5126,"count":6000,"max":[133.4980010986328,59],"min":[45.684776306152344,-3.5999999046325684],"type":"VEC2"},{"bufferView":41,"componentType":5126,"count":6000,"max":[1,0.9993830919265747,1],"min":[-1,-0.9993830919265747,-1],"type":"VEC3"},{"bufferView":42,"componentType":5126,"count":348,"max":[141.18499755859375,59.10559844970703,4.599999904632568],"min":[134.70199584960938,44.89440155029297,-0.6000000238418579],"type":"VEC3"},{"bufferView":43,"componentType":5126,"count":348,"max":[141.18499755859375,58.805599212646484],"min":[44.89440155029297,-3.5999999046325684],"type":"VEC2"},{"bufferView":44,"componentType":5126,"count":348,"max":[1,1,1],"min":[-1,-1,-1],"type":"VEC3"},{"bufferView":45,"componentType":5126,"count":780,"max":[149.39108276367188,59.10559844970703,4.599999904632568],"min":[141.1199188232422,44.89440155029297,-0.6000000238418579],"type":"VEC3"},{"bufferView":46,"componentType":5126,"count":780,"max":[149.39108276367188,58.805599212646484],"min":[44.89440155029297,-3.5999999046325684],"type":"VEC2"},{"bufferView":47,"componentType":5126,"count":780,"max":[0.9892485737800598,1,1],"min":[-0.999006450176239,-1,-1],"type":"VEC3"},{"bufferView":48,"componentType":5126,"count":8040,"max":[157.3553924560547,59.10559844970703,4.599999904632568],"min":[149.8459930419922,44.89440155029297,-0.6000000238418579],"type":"VEC3"},{"bufferView":49,"componentType":5126,"count":8040,"max":[157.3553924560547,58.805599212646484],"min":[44.89440155029297,-3.5999999046325684],"type":"VEC2"},{"bufferView":50,"componentType":5126,"count":8040,"max":[1,1,1],"min":[-1,-1,-1],"type":"VEC3"}],"materials":[{"pbrMetallicRoughness":{"baseColorFactor":[0.6375968739867731,0.6653872982754769,0.7083757798856457,1],"metallicFactor":0,"roughnessFactor":0.3},"doubleSided":true,"extensions":{"KHR_materials_transmission":{"transmissionFactor":1},"KHR_materials_volume":{"thicknessFactor":0,"attenuationColor":[1,1,1]}}}],"meshes":[{"primitives":[{"mode":4,"attributes":{"POSITION":0,"TEXCOORD_0":1,"NORMAL":2},"material":0}]},{"primitives":[{"mode":4,"attributes":{"POSITION":3,"TEXCOORD_0":4,"NORMAL":5},"material":0}]},{"primitives":[{"mode":4,"attributes":{"POSITION":6,"TEXCOORD_0":7,"NORMAL":8},"material":0}]},{"primitives":[{"mode":4,"attributes":{"POSITION":9,"TEXCOORD_0":10,"NORMAL":11},"material":0}]},{"primitives":[{"mode":4,"attributes":{"POSITION":12,"TEXCOORD_0":13,"NORMAL":14},"material":0}]},{"primitives":[{"mode":4,"attributes":{"POSITION":15,"TEXCOORD_0":16,"NORMAL":17},"material":0}]},{"primitives":[{"mode":4,"attributes":{"POSITION":18,"TEXCOORD_0":19,"NORMAL":20},"material":0}]},{"primitives":[{"mode":4,"attributes":{"POSITION":21,"TEXCOORD_0":22,"NORMAL":23},"material":0}]},{"primitives":[{"mode":4,"attributes":{"POSITION":24,"TEXCOORD_0":25,"NORMAL":26},"material":0}]},{"primitives":[{"mode":4,"attributes":{"POSITION":27,"TEXCOORD_0":28,"NORMAL":29},"material":0}]},{"primitives":[{"mode":4,"attributes":{"POSITION":30,"TEXCOORD_0":31,"NORMAL":32},"material":0}]},{"primitives":[{"mode":4,"attributes":{"POSITION":33,"TEXCOORD_0":34,"NORMAL":35},"material":0}]},{"primitives":[{"mode":4,"attributes":{"POSITION":36,"TEXCOORD_0":37,"NORMAL":38},"material":0}]},{"primitives":[{"mode":4,"attributes":{"POSITION":39,"TEXCOORD_0":40,"NORMAL":41},"material":0}]},{"primitives":[{"mode":4,"attributes":{"POSITION":42,"TEXCOORD_0":43,"NORMAL":44},"material":0}]},{"primitives":[{"mode":4,"attributes":{"POSITION":45,"TEXCOORD_0":46,"NORMAL":47},"material":0}]},{"primitives":[{"mode":4,"attributes":{"POSITION":48,"TEXCOORD_0":49,"NORMAL":50},"material":0}]}],"extensionsUsed":["KHR_materials_transmission","KHR_materials_volume"]}